<svg width="56" height="56" viewBox="0 0 56 56" fill="none" xmlns="http://www.w3.org/2000/svg">
<circle cx="28" cy="28" r="28" fill="#B8EA9B"/>
<path d="M30.5002 12.1667C29.6668 12.1667 28.8335 12 28.0002 12C27.1668 12 26.3335 12.1667 25.5002 12.1667M40.1668 18.3333C39.1719 17.0067 37.9934 15.8283 36.6668 14.8333M42.8335 29.5C43.0002 28.6667 43.0002 27.8333 43.0002 27C43.0002 26.1667 42.8335 25.3333 42.8335 24.5M36.6668 39.1667C37.9934 38.1717 39.1719 36.9933 40.1668 35.6667M25.5002 41.8333C26.3335 42 27.1668 42 28.0002 42C28.8335 42 29.6668 41.8333 30.5002 41.8333M13.8335 36.1667L11.3335 43.6667L18.8335 41.1667M13.1668 24.5C13.1668 25.3333 13.0002 26.1667 13.0002 27C13.0002 27.8333 13.1668 28.6667 13.1668 29.5M19.3335 14.8333C18.0069 15.8283 16.8284 17.0067 15.8335 18.3333" stroke="#083F08" stroke-width="2" stroke-linecap="round" stroke-linejoin="round"/>
</svg>
