<svg width="56" height="56" viewBox="0 0 56 56" fill="none" xmlns="http://www.w3.org/2000/svg">
<circle cx="28" cy="28" r="28" fill="#B8EA9B"/>
<path d="M33.6668 23.0002C34.7487 24.4427 35.3335 26.1971 35.3335 28.0002C35.3335 29.8033 34.7487 31.5577 33.6668 33.0002M39.2735 38.6069C40.6664 37.214 41.7713 35.5604 42.5251 33.7405C43.279 31.9206 43.667 29.9701 43.667 28.0002C43.667 26.0304 43.279 24.0798 42.5251 22.2599C41.7713 20.44 40.6664 18.7864 39.2735 17.3935M25.3335 15.8369C25.3332 15.6047 25.2641 15.3779 25.1349 15.185C25.0058 14.9921 24.8224 14.8417 24.6079 14.7529C24.3934 14.6641 24.1574 14.6409 23.9297 14.6861C23.702 14.7313 23.4928 14.8429 23.3285 15.0069L17.6885 20.6452C17.4708 20.8642 17.2119 21.0378 16.9267 21.1559C16.6414 21.2741 16.3356 21.3344 16.0268 21.3335H12.0002C11.5581 21.3335 11.1342 21.5091 10.8217 21.8217C10.5091 22.1343 10.3335 22.5582 10.3335 23.0002V33.0002C10.3335 33.4422 10.5091 33.8662 10.8217 34.1787C11.1342 34.4913 11.5581 34.6669 12.0002 34.6669H16.0268C16.3356 34.666 16.6414 34.7263 16.9267 34.8445C17.2119 34.9627 17.4708 35.1362 17.6885 35.3552L23.3268 40.9952C23.4912 41.1599 23.7007 41.272 23.9288 41.3175C24.157 41.363 24.3935 41.3397 24.6084 41.2506C24.8233 41.1616 25.0069 41.0107 25.136 40.8172C25.2651 40.6237 25.3338 40.3962 25.3335 40.1635V15.8369Z" stroke="#083F08" stroke-width="2" stroke-linecap="round" stroke-linejoin="round"/>
</svg>
