<svg width="56" height="56" viewBox="0 0 56 56" fill="none" xmlns="http://www.w3.org/2000/svg">
<circle cx="28" cy="28" r="28" fill="#B8EA9B"/>
<path d="M39.6663 36.3332H42.9997C43.9997 36.3332 44.6663 35.6665 44.6663 34.6665V29.6665C44.6663 28.1665 43.4997 26.8332 42.1663 26.4998C39.1663 25.6665 34.6663 24.6665 34.6663 24.6665C34.6663 24.6665 32.4997 22.3332 30.9997 20.8332C30.1663 20.1665 29.1663 19.6665 27.9997 19.6665H16.333C15.333 19.6665 14.4997 20.3332 13.9997 21.1665L11.6663 25.9998C11.4456 26.6435 11.333 27.3193 11.333 27.9998V34.6665C11.333 35.6665 11.9997 36.3332 12.9997 36.3332H16.333" stroke="#083F08" stroke-width="2" stroke-linecap="round" stroke-linejoin="round"/>
<path d="M19.6663 39.6667C21.5073 39.6667 22.9997 38.1743 22.9997 36.3333C22.9997 34.4924 21.5073 33 19.6663 33C17.8254 33 16.333 34.4924 16.333 36.3333C16.333 38.1743 17.8254 39.6667 19.6663 39.6667Z" stroke="#083F08" stroke-width="2" stroke-linecap="round" stroke-linejoin="round"/>
<path d="M22.9995 36.333H32.9995" stroke="#083F08" stroke-width="2" stroke-linecap="round" stroke-linejoin="round"/>
<path d="M36.3328 39.6667C38.1738 39.6667 39.6662 38.1743 39.6662 36.3333C39.6662 34.4924 38.1738 33 36.3328 33C34.4919 33 32.9995 34.4924 32.9995 36.3333C32.9995 38.1743 34.4919 39.6667 36.3328 39.6667Z" stroke="#083F08" stroke-width="2" stroke-linecap="round" stroke-linejoin="round"/>
</svg>
