<svg width="32" height="32" viewBox="0 0 32 32" fill="none" xmlns="http://www.w3.org/2000/svg">
<path d="M5.33337 24.0003C5.33337 22.5858 5.89528 21.2293 6.89547 20.2291C7.89566 19.2289 9.25222 18.667 10.6667 18.667H21.3334C22.7479 18.667 24.1044 19.2289 25.1046 20.2291C26.1048 21.2293 26.6667 22.5858 26.6667 24.0003C26.6667 24.7076 26.3858 25.3858 25.8857 25.8859C25.3856 26.386 24.7073 26.667 24 26.667H8.00004C7.2928 26.667 6.61452 26.386 6.11442 25.8859C5.61433 25.3858 5.33337 24.7076 5.33337 24.0003Z" stroke="#DADED7" stroke-width="2" stroke-linejoin="round"/>
<path d="M16 13.3335C18.2091 13.3335 20 11.5426 20 9.3335C20 7.12436 18.2091 5.3335 16 5.3335C13.7909 5.3335 12 7.12436 12 9.3335C12 11.5426 13.7909 13.3335 16 13.3335Z" stroke="#DADED7" stroke-width="2"/>
</svg>
