<?xml version="1.0" encoding="UTF-8"?>
<svg id="Layer_2" data-name="Layer 2" xmlns="http://www.w3.org/2000/svg" viewBox="0 0 180 180">
  <defs>
    <style>
      .cls-1 {
        fill: #1c3f1c;
      }

      .cls-2 {
        fill: #b8ea9b;
      }
    </style>
  </defs>
  <g id="Layer_1-2" data-name="Layer 1">
    <g>
      <rect class="cls-2" width="180" height="180"/>
      <g>
        <path class="cls-1" d="M47.05,83.32h-.28l-5.42,23.31h-6.54l-9.2-32.7h6.68l5.79,22.98h.14l5.47-22.98h6.45l5.37,22.98h.19l5.84-22.98h6.68l-9.2,32.7h-6.54l-5.42-23.31Z"/>
        <path class="cls-1" d="M71.11,76.13c0-1.92,1.54-3.46,3.64-3.46s3.64,1.54,3.64,3.46-1.54,3.41-3.64,3.41-3.64-1.45-3.64-3.41ZM71.76,82.99h5.98v23.64h-5.98v-23.64Z"/>
        <path class="cls-1" d="M85.68,98.36v-10.32h-4.3v-5.05h2.76c1.26,0,1.92-.65,1.92-1.87v-5.33h5.47v7.19h4.95v5.05h-4.81v12.15c0,.98.47,1.4,1.45,1.4h3.97v5.05h-2.71c-5.61,0-8.69-3.08-8.69-8.27Z"/>
        <path class="cls-1" d="M112.44,87.43c-3.32,0-5.65,2.29-5.65,7.43v11.77h-5.98v-32.7h5.98v11.96c1.45-2.43,3.83-3.64,7.1-3.64,5.56,0,8.83,3.5,8.83,9.39v14.99h-5.93v-13.87c0-3.64-1.45-5.33-4.34-5.33Z"/>
        <path class="cls-1" d="M127.06,93.32v-19.39h6.31v19.48c0,5.61,2.48,8.36,7.38,8.36s7.38-2.52,7.38-8.36v-19.48h6.26v19.39c0,9.06-5.23,14.01-13.64,14.01s-13.69-5.33-13.69-14.01Z"/>
      </g>
    </g>
  </g>
</svg>