<?xml version="1.0" encoding="UTF-8"?>
<svg id="Layer_2" data-name="Layer 2" xmlns="http://www.w3.org/2000/svg" viewBox="0 0 142.94 38.47">
  <defs>
    <style>
      .cls-1 {
        fill: #badb9a;
      }
    </style>
  </defs>
  <g id="Layer_1-2" data-name="Layer 1">
    <g>
      <path class="cls-1" d="M23.8,11.82h-.31l-6.01,25.87h-7.26L0,1.4h7.41l6.43,25.51h.16L20.07,1.4h7.16l5.96,25.51h.21L39.87,1.4h7.41l-10.21,36.29h-7.26l-6.01-25.87Z"/>
      <path class="cls-1" d="M50.5,3.84c0-2.13,1.71-3.84,4.04-3.84s4.04,1.71,4.04,3.84-1.71,3.78-4.04,3.78-4.04-1.61-4.04-3.78ZM51.22,11.46h6.64v26.24h-6.64V11.46Z"/>
      <path class="cls-1" d="M66.67,28.52v-11.46h-4.77v-5.6h3.06c1.4,0,2.13-.73,2.13-2.07V3.47h6.07v7.98h5.5v5.6h-5.34v13.48c0,1.09.52,1.56,1.61,1.56h4.41v5.6h-3.01c-6.22,0-9.64-3.42-9.64-9.18Z"/>
      <path class="cls-1" d="M96.38,16.38c-3.68,0-6.27,2.54-6.27,8.24v13.07h-6.64V1.4h6.64v13.27c1.61-2.7,4.25-4.04,7.88-4.04,6.17,0,9.8,3.89,9.8,10.42v16.64h-6.58v-15.4c0-4.04-1.61-5.91-4.82-5.91Z"/>
      <path class="cls-1" d="M112.61,22.92V1.4h7v21.62c0,6.22,2.75,9.28,8.19,9.28s8.19-2.8,8.19-9.28V1.4h6.95v21.52c0,10.06-5.81,15.55-15.14,15.55s-15.19-5.91-15.19-15.55Z"/>
    </g>
  </g>
</svg>