<?xml version="1.0" encoding="UTF-8"?>
<svg id="Layer_2" data-name="Layer 2" xmlns="http://www.w3.org/2000/svg" viewBox="0 0 200.85 215.92">
  <defs>
    <style>
      .cls-1 {
        fill: #b8ea9b;
      }
    </style>
  </defs>
  <g id="Layer_1-2" data-name="Layer 1">
    <g>
      <path class="cls-1" d="M113.82,215.92c-2.67,0-5.35-.64-8.01-2.32-3.43-2.18-5.11-6.54-7.04-11.6-1.36-3.55-2.9-7.58-5.28-11.17-3.49-5.28-9.35-7.95-14.52-10.31-2.98-1.36-5.79-2.64-8.01-4.3-2-1.5-3.9-3.04-5.74-4.53-5.15-4.17-10.02-8.12-15.61-9.83-4.13-1.27-8.13-2.39-12-3.47-4.59-1.28-8.92-2.5-12.99-3.82-1.32-.43-2.66-.82-4.01-1.22-7.36-2.17-14.98-4.4-18.66-12.12-1.74-3.65-.95-8.4-.03-13.89.64-3.81,1.36-8.14,1.36-12.79,0-3.69-.87-7.32-1.7-10.83-1-4.17-1.94-8.11-1.44-11.96.68-5.28,2.7-9.93,4.65-14.43,1.06-2.43,2.06-4.73,2.83-7.08.53-1.61,1.02-3.2,1.5-4.77,1.8-5.83,3.49-11.33,6.66-16.21,1.1-1.7,2.17-3.5,3.2-5.25,2.86-4.85,5.82-9.87,10.11-13.62,3.35-2.93,7.63-4.51,12.17-6.18,2.92-1.08,5.94-2.19,8.7-3.7,2.39-1.31,4.67-2.91,7.08-4.61,3.83-2.69,7.79-5.48,12.47-7.21,1.98-.73,3.95-1.51,6.04-2.34,4.93-1.95,10.03-3.96,15.49-5.42,5.65-1.5,11.49-.94,17.14-.39,2.03.2,3.95.38,5.86.48,4.98.25,9.36,2.44,13.6,4.55,2.33,1.17,4.75,2.37,7.25,3.25,6.52,2.29,13.25,4.66,19.79,8.99,6.86,4.54,12.1,8.82,17.01,13.88,2.29,2.36,5.66,4.05,8.92,5.68,4.14,2.07,8.42,4.21,10.7,7.82,3.06,4.85,4.84,10.63,6.57,16.21.61,1.97,1.19,3.83,1.81,5.64,1.65,4.77,1.19,9.89.74,14.85-.26,2.84-.5,5.51-.37,8.12.04.86.09,1.71.13,2.56.37,6.8.72,13.22-1.43,19.6h0c-1.15,3.42-1.71,7.1-2.3,11-.7,4.63-1.43,9.42-3.23,13.8-2.9,7.03-6.45,14.04-9.88,20.83l-1.02,2.01c-3.82,7.57-8.39,14.6-12.8,21.4l-.22.35c-4.32,6.66-9.69,13.33-15.97,19.82-5.03,5.2-11.55,6.85-17.31,8.31-1.95.49-3.79.96-5.52,1.54-1.35.45-2.74.98-4.09,1.49-4.14,1.57-8.36,3.17-12.6,3.17ZM99.26,1c-2.68,0-5.35.24-7.96.93-5.41,1.44-10.48,3.44-15.38,5.38-2.09.83-4.07,1.61-6.06,2.34-4.56,1.68-8.46,4.43-12.24,7.09-2.43,1.71-4.73,3.33-7.17,4.67-2.82,1.54-5.88,2.67-8.84,3.76-4.45,1.64-8.65,3.19-11.86,6-4.16,3.65-7.08,8.59-9.9,13.38-1.04,1.75-2.11,3.57-3.22,5.28-3.09,4.76-4.77,10.2-6.54,15.96-.49,1.58-.98,3.18-1.51,4.79-.79,2.39-1.79,4.71-2.86,7.16-1.93,4.43-3.92,9.02-4.58,14.16-.47,3.67.45,7.52,1.42,11.6.85,3.56,1.73,7.25,1.73,11.06,0,4.74-.73,9.1-1.38,12.96-.89,5.33-1.67,9.93-.06,13.3,3.49,7.31,10.89,9.49,18.04,11.59,1.35.4,2.71.8,4.04,1.23,4.06,1.31,8.38,2.52,12.95,3.81,3.87,1.08,7.88,2.21,12.03,3.47,5.78,1.77,10.72,5.77,15.95,10.01,1.83,1.48,3.72,3.02,5.71,4.5,2.13,1.6,4.9,2.86,7.82,4.19,5.29,2.42,11.29,5.15,14.94,10.67,2.44,3.68,4,7.76,5.38,11.36,1.87,4.89,3.49,9.11,6.64,11.11,6.45,4.09,13.19,1.54,19.71-.94,1.36-.51,2.76-1.05,4.13-1.5,1.77-.59,3.62-1.06,5.59-1.56,5.91-1.5,12.01-3.04,16.84-8.04,6.23-6.45,11.56-13.06,15.85-19.67l.22-.35c4.4-6.78,8.95-13.79,12.74-21.31l1.02-2.01c3.42-6.77,6.96-13.76,9.85-20.76,1.76-4.27,2.48-9,3.17-13.57.57-3.77,1.16-7.67,2.34-11.17,2.08-6.2,1.74-12.53,1.38-19.23-.05-.85-.09-1.71-.13-2.57-.13-2.68.13-5.52.37-8.26.44-4.85.89-9.87-.69-14.43-.63-1.82-1.21-3.69-1.82-5.67-1.71-5.52-3.48-11.24-6.46-15.98-2.12-3.37-6.28-5.45-10.3-7.46-3.33-1.67-6.78-3.39-9.19-5.88-4.85-5-10.05-9.24-16.84-13.74-6.44-4.26-13.11-6.61-19.57-8.88-2.56-.9-5-2.12-7.36-3.3-4.34-2.17-8.44-4.22-13.21-4.45-1.93-.1-3.95-.29-5.91-.48-2.91-.28-5.88-.57-8.82-.57Z"/>
      <path class="cls-1" d="M124.52,205.88c-5,0-9.39-2.84-14.29-6.02-.72-.47-1.46-.95-2.22-1.43-1.47-.93-3.31-1.72-5.26-2.55-4.76-2.03-10.15-4.32-13.92-10.01-1.64-2.47-3.03-4.94-4.39-7.33-2.77-4.9-5.17-9.12-8.62-11.71-5.2-3.89-11.18-5.52-16.97-7.08-1.6-.43-3.1-.84-4.59-1.3-4.47-1.37-8.5-3.18-12.4-4.94-3.25-1.46-6.31-2.84-9.33-3.82-1.97-.64-4.13-1.06-6.42-1.52-6.26-1.24-13.36-2.64-16.47-9.16-1.72-3.6-.99-8.3-.15-13.73.54-3.46,1.14-7.38,1.14-11.41,0-5.87,1.15-11.07,2.26-16.1.55-2.49,1.07-4.84,1.44-7.2.55-3.55,0-7.4-.53-11.11-.71-4.98-1.39-9.67.36-13.83,2.12-5.05,6.5-8.4,10.74-11.64,2.54-1.94,4.94-3.78,6.8-5.91,1.52-1.74,2.89-3.58,4.35-5.53,3.29-4.4,6.69-8.96,11.75-12.17,6.8-4.31,14.03-7.98,21.47-10.9,1.39-.55,2.8-1.11,4.23-1.69,5.78-2.33,11.77-4.74,18.35-6.49,6.91-1.84,14.96-2.35,23.93-1.51,1.55.14,3.14.26,4.75.37,6.57.47,13.36.96,19.24,3.53,7.8,3.41,15.24,7.84,20.97,12.47,6.18,5,11.73,11.85,16.34,17.9,3.93,5.15,6.44,11.33,8.88,17.31.58,1.44,1.16,2.85,1.75,4.23,2.99,7.01,3.68,14.47,4.35,21.68l.15,1.56c.68,7.21-1.55,13.69-3.72,19.96-.3.87-.6,1.74-.9,2.62l-1.42-.48,1.42.48c-2.4,7.14-5.28,14.23-8.03,20.89-1.02,2.46-1.96,5.01-2.88,7.47-1.64,4.42-3.34,8.99-5.52,13.31-3.46,6.84-6.89,13.5-10.87,19.63-4.06,6.25-8.44,12.79-13.46,17.98-.59.61-1.17,1.21-1.74,1.81-5.21,5.44-10.13,10.58-16.14,12.59-1.55.52-3.02.75-4.44.75ZM107.68,12.43c-5.5,0-10.54.6-15.05,1.8-6.41,1.7-12.31,4.08-18.01,6.37-1.44.58-2.86,1.15-4.26,1.7-7.27,2.85-14.32,6.43-20.96,10.64-4.6,2.92-7.83,7.25-10.96,11.43-1.43,1.91-2.9,3.88-4.49,5.71-2.05,2.36-4.69,4.37-7.24,6.32-3.93,3-7.99,6.1-9.79,10.41-1.42,3.39-.81,7.69-.15,12.24.56,3.94,1.15,8,.52,12-.38,2.46-.91,4.85-1.47,7.39-1.08,4.87-2.19,9.91-2.19,15.45,0,4.25-.63,8.3-1.18,11.87-.77,4.94-1.43,9.21-.11,11.98,2.46,5.16,8.24,6.3,14.35,7.51,2.27.45,4.62.91,6.76,1.61,3.17,1.03,6.31,2.44,9.63,3.93,3.82,1.72,7.76,3.49,12.05,4.8,1.44.44,2.92.84,4.5,1.27,5.77,1.57,12.32,3.34,17.98,7.58,3.96,2.97,6.62,7.66,9.44,12.64,1.33,2.34,2.7,4.77,4.28,7.15,3.27,4.93,8.22,7.04,12.59,8.9,2.07.88,4.02,1.71,5.7,2.77.77.49,1.51.97,2.25,1.44,6.11,3.96,10.53,6.82,16.15,4.95,5.31-1.77,9.76-6.43,14.93-11.82.58-.6,1.16-1.21,1.75-1.82,4.83-5,9.12-11.4,13.1-17.53,3.9-6.01,7.29-12.58,10.71-19.35,2.1-4.17,3.77-8.66,5.39-13,.92-2.49,1.88-5.06,2.92-7.57,2.73-6.61,5.59-13.65,7.96-20.7h0c.3-.89.6-1.77.91-2.65,2.15-6.24,4.19-12.13,3.57-18.7l-.15-1.57c-.65-6.98-1.32-14.2-4.12-20.78-.59-1.39-1.17-2.82-1.76-4.27-2.36-5.8-4.8-11.79-8.48-16.62-4.51-5.91-9.91-12.59-15.84-17.38-5.53-4.47-12.73-8.75-20.29-12.06-5.41-2.37-11.93-2.83-18.25-3.29-1.63-.12-3.25-.23-4.82-.38-2.7-.25-5.32-.38-7.83-.38Z"/>
      <path class="cls-1" d="M123.22,195.93c-4.64,0-9.12-1.68-13.38-3.69-5.93-2.79-10.07-7.88-15.64-16.3-4.72-7.12-11.41-13.34-19.88-18.46-5.08-3.07-10.99-3.19-16.71-3.31-3.47-.07-6.74-.14-9.74-.85-10.11-2.39-15.67-9.32-21.04-16.01-.57-.71-1.2-1.44-1.85-2.19-4.09-4.74-9.17-10.64-9.17-21.72,0-1.31,0-2.62-.01-3.92-.03-8.15-.07-15.85,1.26-22.58,2.08-10.56,6.39-19.53,9.63-25.19,3.24-5.66,8.76-9.51,14.09-13.23,1.98-1.38,4.03-2.81,5.91-4.3,5.38-4.26,11.82-6.95,18.64-9.79,1.38-.58,2.78-1.16,4.21-1.77,1.24-.53,2.48-1.08,3.74-1.62,6.25-2.73,12.71-5.56,20.26-7.56,2.04-.54,4.11-1.19,6.11-1.83,6.07-1.92,12.35-3.89,18.49-2.97,7.05,1.06,13.5,4.75,19.75,8.31,1.1.62,2.19,1.25,3.27,1.85,5.03,2.79,8.7,7.21,12.25,11.48,1.61,1.94,3.28,3.95,5.05,5.77,5.61,5.78,10.04,11.9,13.97,19.26,4.38,8.22,6.74,14.89,7.88,22.31,1.39,9.03,2.17,16.01-.4,23.66h0c-1.79,5.33-4.07,10.51-6.47,15.98-.86,1.96-1.73,3.94-2.59,5.94-.87,2.04-1.7,4.08-2.53,6.12-2.12,5.21-4.31,10.6-7.03,15.58-4.1,7.53-8.98,14.06-13.22,19.59-1.69,2.2-3.2,4.49-4.66,6.7-3.21,4.86-6.24,9.45-10.5,12.01-3.29,1.98-6.52,2.75-9.67,2.75ZM114.85,20.37c-4.72,0-9.55,1.52-14.61,3.12-2.02.64-4.11,1.3-6.2,1.85-7.4,1.97-13.79,4.76-19.97,7.46-1.26.55-2.51,1.1-3.75,1.63-1.43.61-2.84,1.2-4.23,1.78-6.98,2.91-13,5.42-18.16,9.52-1.93,1.53-4,2.97-6.01,4.37-5.15,3.6-10.48,7.31-13.5,12.58-3.17,5.53-7.37,14.29-9.41,24.58-1.29,6.54-1.26,14.14-1.23,22.19,0,1.3.01,2.61.01,3.93,0,10.35,4.82,15.93,8.69,20.42.67.78,1.31,1.52,1.89,2.25,5.16,6.43,10.5,13.08,19.94,15.32,2.79.66,5.96.73,9.32.79,5.98.12,12.16.25,17.7,3.6,8.73,5.28,15.63,11.7,20.52,19.07,5.37,8.12,9.33,13.01,14.83,15.6,7.7,3.63,14.25,5.19,21.17,1.03,3.87-2.33,6.78-6.74,9.87-11.4,1.48-2.24,3.01-4.56,4.74-6.82,4.39-5.72,9.02-11.92,13.05-19.33,2.66-4.88,4.73-9.98,6.93-15.38.83-2.05,1.67-4.1,2.54-6.15.86-2.01,1.73-3.99,2.59-5.96,2.39-5.43,4.64-10.56,6.41-15.81,2.43-7.22,1.66-13.97.32-22.72-1.1-7.18-3.4-13.66-7.67-21.67-3.83-7.19-8.17-13.17-13.64-18.81-1.83-1.88-3.52-3.92-5.15-5.89-3.59-4.32-6.98-8.4-11.68-11.01-1.09-.6-2.19-1.23-3.29-1.86-6.09-3.47-12.38-7.06-19.06-8.07-.99-.15-1.98-.22-2.98-.22Z"/>
      <path class="cls-1" d="M114.74,188.29c-.96,0-1.93-.11-2.91-.34-5.34-1.27-8.89-6.91-13.39-14.05-1.07-1.71-2.19-3.47-3.4-5.3-5.19-7.84-12.75-12.41-18.27-15.75-6.42-3.88-13.38-5.46-19.53-6.85-1-.23-1.98-.45-2.94-.68-8.61-2.04-15.6-4.09-20.58-10.29-3.77-4.69-7.62-11-7.62-22.19,0-8.46,1.36-16.05,2.75-23.11,1.24-6.27,4.35-11.17,7.36-15.92,1-1.58,1.94-3.06,2.83-4.6.5-.87.98-1.73,1.46-2.58,3.3-5.87,6.41-11.42,11.87-15.74,5.53-4.38,12.05-7.58,20.14-11.05,6.63-2.84,13.84-4.84,21.89-6.98,10.49-2.79,18.46-3.27,25.86-1.56,8.12,1.88,17.4,4.33,24.78,9.71,5.86,4.27,10.04,10.56,14.08,16.63.89,1.34,1.78,2.67,2.67,3.97,4.75,6.88,8.09,14.67,10.22,23.81.39,1.68.85,3.42,1.29,5.1,1.93,7.32,3.92,14.88,1.66,21.61-2.83,8.42-6.05,16.74-9.31,24.05-2.18,4.89-5.49,9.27-8.68,13.5-2.06,2.73-4.01,5.32-5.66,8-5,8.17-11.53,14.14-16.78,18.95-6.28,5.75-12.75,11.67-19.81,11.67ZM111.32,31.29c-4.9,0-10.31.83-16.66,2.52-8.02,2.13-15.19,4.12-21.75,6.94-8.02,3.43-14.47,6.6-19.91,10.91-5.3,4.2-8.37,9.66-11.62,15.45-.48.86-.97,1.72-1.47,2.59-.89,1.56-1.89,3.13-2.85,4.64-2.96,4.67-6.02,9.49-7.23,15.57-1.38,7.01-2.74,14.55-2.74,22.91,0,10.88,3.74,17,7.4,21.56,4.78,5.95,11.6,7.95,20.03,9.95.96.23,1.93.45,2.93.67,6.22,1.41,13.27,3.01,19.83,6.97,5.6,3.39,13.27,8.02,18.59,16.05,1.22,1.84,2.33,3.61,3.41,5.32,4.38,6.95,7.83,12.44,12.77,13.62,7.71,1.83,14.88-4.74,21.82-11.09,5.2-4.76,11.67-10.69,16.6-18.73,1.67-2.73,3.63-5.33,5.71-8.08,3.16-4.19,6.43-8.52,8.57-13.3,3.25-7.28,6.46-15.56,9.28-23.96,2.17-6.45.21-13.87-1.68-21.04-.45-1.69-.91-3.43-1.3-5.13-2.1-9.02-5.39-16.7-10.07-23.47-.9-1.3-1.79-2.64-2.68-3.98-3.99-6-8.12-12.21-13.84-16.38-7.23-5.27-16.4-7.69-24.42-9.54-2.78-.64-5.65-.97-8.72-.97Z"/>
      <path class="cls-1" d="M112.35,170.3c-7.8,0-14.17-3.87-19.4-11.77-5.99-9.04-12.22-12.52-18.06-14.93-3.22-1.33-6.27-2.47-9.22-3.57-5.08-1.9-9.88-3.69-13.97-5.93-6.73-3.69-9.36-9.91-9.36-22.19,0-7.51,1.71-13.59,3.36-19.47.28-.99.55-1.96.81-2.93.37-1.37.71-2.72,1.04-4.04,1.61-6.4,3.12-12.44,7.3-17.23,5.37-6.16,11.4-10.84,18.44-14.31,4.22-2.08,9.08-3.08,14.22-4.14,2.65-.55,5.4-1.11,8.17-1.85,9.75-2.59,17.95-2.51,25.79.24,8.98,3.15,17.53,6.5,23.56,12.71,6.28,6.47,9.41,15.51,12.17,23.49l.11.3c3.6,10.4,4.16,19.01,1.7,26.33h0c-1.62,4.81-4.29,9.51-6.88,14.05-1.61,2.83-3.28,5.76-4.69,8.71-.87,1.82-1.7,3.63-2.53,5.43-2.87,6.27-5.59,12.18-9.32,17.04-6.5,8.47-13.42,13.15-20.54,13.91-.92.1-1.81.15-2.69.15ZM108.9,48.05c-3.96,0-8.16.61-12.71,1.82-2.83.75-5.6,1.32-8.28,1.87-5.02,1.03-9.75,2.01-13.74,3.97-6.8,3.35-12.62,7.87-17.81,13.83-3.86,4.43-5.25,9.98-6.87,16.4-.33,1.33-.68,2.69-1.05,4.07-.26.98-.54,1.96-.82,2.95-1.61,5.75-3.28,11.7-3.28,18.93,0,13.22,3.18,17.62,8.32,20.44,3.96,2.17,8.48,3.86,13.71,5.81,2.97,1.11,6.04,2.25,9.29,3.6,5.84,2.41,12.66,6.16,18.96,15.68,5.37,8.11,11.98,11.62,20.21,10.74,6.56-.7,13.01-5.13,19.17-13.14,3.59-4.67,6.26-10.49,9.08-16.65.83-1.81,1.67-3.63,2.54-5.46,1.44-3.01,3.13-5.97,4.76-8.83,2.66-4.67,5.17-9.08,6.72-13.7,2.31-6.88,1.76-15.07-1.69-25.04l-.11-.3c-2.7-7.78-5.75-16.6-11.72-22.75-5.73-5.9-14.05-9.15-22.79-12.22-3.82-1.34-7.73-2.01-11.9-2.01Z"/>
      <path class="cls-1" d="M111.98,163.52c-6.01,0-12.09-4.21-17.25-12-4.7-7.1-9.87-11.74-15.79-14.19-3.4-1.4-6.62-2.4-9.74-3.37-3.89-1.21-7.57-2.35-10.69-4.06-5.27-2.88-8.78-7.13-8.78-18.47v-1.63c0-9.9-.02-18.45,2.86-25.3,3.56-8.48,11.09-13.78,19.15-18.89,6.77-4.3,15.13-6.52,24.81-9.09,7.21-1.92,13.67-1.54,21.6,1.24.79.28,1.58.55,2.38.82,6.37,2.19,12.96,4.45,17.76,9.4,5.42,5.59,9.74,12.54,12.18,19.57,2.75,7.92.61,15.62-1.61,22.22-.82,2.43-1.48,4.94-2.18,7.6-1.19,4.51-2.41,9.17-4.48,13.48-3.59,7.49-8.22,13.88-11.85,18.61-5.36,6.97-10.69,13.29-17.02,13.97-.45.05-.91.07-1.37.07ZM105.28,56.33c-2.8,0-5.57.39-8.46,1.16-9.6,2.55-17.88,4.75-24.53,8.97-8.22,5.21-15.31,10.2-18.76,18.43-2.8,6.67-2.79,15.12-2.78,24.91v1.63c0,10.88,3.16,14.8,8.26,17.59,3.04,1.66,6.67,2.79,10.51,3.98,3.14.97,6.38,1.98,9.82,3.4,6.12,2.52,11.43,7.29,16.24,14.56,5.33,8.06,11.6,12.14,17.67,11.49,5.94-.64,11.12-6.79,16.34-13.58,3.6-4.69,8.2-11.03,11.74-18.43,2.02-4.23,3.24-8.84,4.41-13.31.7-2.67,1.37-5.2,2.19-7.66h0c2.16-6.44,4.25-13.95,1.61-21.57-2.39-6.9-6.64-13.72-11.96-19.2-4.64-4.78-11.11-7-17.37-9.15-.8-.27-1.59-.55-2.39-.83-4.54-1.59-8.58-2.38-12.55-2.38Z"/>
      <path class="cls-1" d="M105.17,134.84c-.08,0-.17,0-.25,0-2.86-.1-5.49-1.92-7.79-5.4-3.85-5.82-8.29-7.06-12.21-8.15-4.69-1.31-8.74-2.44-8.74-11.51s1.42-15.06,4.74-18.87c3.41-3.91,9.11-6.89,17.43-9.1,6.7-1.78,14.33.92,20.44,7.21,5.97,6.15,8.59,14.39,6.54,20.5h0c-2.09,6.21-5.92,13.37-10.01,18.69-3.34,4.35-6.84,6.64-10.14,6.64ZM102.52,82.26c-1.33,0-2.64.17-3.91.5-8.12,2.16-13.66,5.03-16.93,8.79-3.15,3.62-4.5,9.07-4.5,18.22,0,8.31,3.36,9.25,8.01,10.54,3.89,1.09,8.72,2.44,12.78,8.56,2.12,3.2,4.47,4.87,6.99,4.96,3.84.13,7.32-3.32,9.56-6.25,4.02-5.24,7.8-12.29,9.85-18.4,1.94-5.76-.6-13.6-6.31-19.49-4.67-4.82-10.26-7.44-15.55-7.44Z"/>
      <path class="cls-1" d="M107.81,148.05c-4.19,0-7.96-2.68-11.56-8.12-5.74-8.67-12.51-11.28-18.97-12.81-.63-.15-1.26-.29-1.89-.43-6.96-1.55-14.15-3.15-14.15-16.12s5.39-20.35,11.22-27.04c6.75-7.75,14.59-12.61,24.68-15.29,7.73-2.05,16.03-1.09,22.76,2.65,6.85,3.8,11.42,11.22,14.64,17.25,4.85,9.1,6.26,16.37,4.29,22.21h0c-1.42,4.22-4.06,8.23-6.62,12.11-1.46,2.21-2.97,4.5-4.2,6.77-3.65,6.7-7.77,13.35-13.14,16.58-2.49,1.5-4.83,2.25-7.04,2.25ZM105.25,69.18c-2.54,0-5.11.33-7.61.99-9.68,2.57-17.21,7.23-23.68,14.67-5.57,6.4-10.73,13.94-10.73,25.72s5.55,12.61,12.59,14.17c.64.14,1.27.28,1.91.44,6.86,1.62,14.06,4.4,20.18,13.65,6.19,9.34,11.51,7.91,15.91,5.26,4.96-2.98,8.9-9.37,12.42-15.82,1.27-2.34,2.81-4.66,4.29-6.91,2.49-3.77,5.06-7.67,6.39-11.64h0c1.78-5.29.42-12.04-4.16-20.63-3.09-5.79-7.45-12.89-13.84-16.44-4.11-2.28-8.85-3.45-13.66-3.45Z"/>
    </g>
  </g>
</svg>