<svg width="56" height="56" viewBox="0 0 56 56" fill="none" xmlns="http://www.w3.org/2000/svg">
<circle cx="28" cy="28" r="28" fill="#1D211B"/>
<path d="M34.6667 44.6666L33 37.9999M39.6667 31.3166C40.1087 31.3166 40.5326 31.141 40.8452 30.8284C41.1578 30.5159 41.3333 30.0919 41.3333 29.6499V27.9999C41.3333 27.1159 40.9822 26.268 40.357 25.6429C39.7319 25.0178 38.8841 24.6666 38 24.6666H33C32.558 24.6666 32.1341 24.491 31.8215 24.1784C31.5089 23.8659 31.3334 23.4419 31.3334 22.9999V14.6666C31.3334 13.7825 30.9822 12.9347 30.357 12.3096C29.7319 11.6844 28.8841 11.3333 28 11.3333C27.116 11.3333 26.2681 11.6844 25.643 12.3096C25.0179 12.9347 24.6667 13.7825 24.6667 14.6666V22.9999C24.6667 23.4419 24.4911 23.8659 24.1785 24.1784C23.866 24.491 23.442 24.6666 23 24.6666H18C17.116 24.6666 16.2681 25.0178 15.643 25.6429C15.0179 26.268 14.6667 27.1159 14.6667 27.9999V29.6499C14.6667 30.0919 14.8423 30.5159 15.1548 30.8284C15.4674 31.141 15.8913 31.3166 16.3334 31.3166M21.3334 44.6666L23 37.9999M16.3334 31.3333H39.6667L42.955 42.6116C43.0137 42.8566 43.0161 43.1118 42.962 43.3579C42.9079 43.604 42.7987 43.8346 42.6426 44.0324C42.4865 44.2302 42.2876 44.39 42.0608 44.4999C41.834 44.6097 41.5853 44.6667 41.3333 44.6666H14.6667C14.4147 44.6667 14.166 44.6097 13.9392 44.4999C13.7125 44.39 13.5135 44.2302 13.3575 44.0324C13.2014 43.8346 13.0922 43.604 13.038 43.3579C12.9839 43.1118 12.9863 42.8566 13.045 42.6116L16.3334 31.3333Z" stroke="#B8EA9B" stroke-width="2" stroke-linecap="round" stroke-linejoin="round"/>
</svg>
