<svg width="56" height="56" viewBox="0 0 56 56" fill="none" xmlns="http://www.w3.org/2000/svg">
<circle cx="28" cy="28" r="28" fill="#1D211B"/>
<path d="M30.5 12.1667C29.6667 12.1667 28.8334 12 28 12C27.1667 12 26.3334 12.1667 25.5 12.1667M40.1667 18.3333C39.1718 17.0067 37.9933 15.8283 36.6667 14.8333M42.8334 29.5C43 28.6667 43 27.8333 43 27C43 26.1667 42.8334 25.3333 42.8334 24.5M36.6667 39.1667C37.9933 38.1717 39.1718 36.9933 40.1667 35.6667M25.5 41.8333C26.3334 42 27.1667 42 28 42C28.8334 42 29.6667 41.8333 30.5 41.8333M13.8334 36.1667L11.3334 43.6667L18.8334 41.1667M13.1667 24.5C13.1667 25.3333 13 26.1667 13 27C13 27.8333 13.1667 28.6667 13.1667 29.5M19.3334 14.8333C18.0068 15.8283 16.8283 17.0067 15.8334 18.3333" stroke="#B8EA9B" stroke-width="2" stroke-linecap="round" stroke-linejoin="round"/>
</svg>
