<svg width="56" height="56" viewBox="0 0 56 56" fill="none" xmlns="http://www.w3.org/2000/svg">
<circle cx="28" cy="28" r="28" fill="#1D211B"/>
<path d="M28 42.9C30.5 42.9 32.5834 44.6666 34.6667 44.6666C39.6667 44.6666 44.6667 31.3333 44.6667 24.3C44.6099 22.1412 43.7021 20.0923 42.1411 18.6C40.5801 17.1077 38.4925 16.293 36.3334 16.3333C32.6334 16.3333 29.6667 18.7333 28 19.6666C26.3334 18.7333 23.3667 16.3333 19.6667 16.3333C17.5063 16.2886 15.4162 17.1019 13.8543 18.5951C12.2923 20.0883 11.3858 22.1397 11.3334 24.3C11.3334 31.3333 16.3334 44.6666 21.3334 44.6666C23.4167 44.6666 25.5 42.9 28 42.9Z" stroke="#B8EA9B" stroke-width="2" stroke-linecap="round" stroke-linejoin="round"/>
<path d="M24.6667 11.3333C26.3334 12.1666 28.0001 14.6666 28.0001 19.6666" stroke="#B8EA9B" stroke-width="2" stroke-linecap="round" stroke-linejoin="round"/>
</svg>
