<svg width="56" height="56" viewBox="0 0 56 56" fill="none" xmlns="http://www.w3.org/2000/svg">
<circle cx="28" cy="28" r="28" fill="#1D211B"/>
<path d="M11.3334 41.3332V27.9998C11.3334 27.1158 11.6846 26.2679 12.3097 25.6428C12.9348 25.0177 13.7827 24.6665 14.6667 24.6665M14.6667 24.6665H41.3334M14.6667 24.6665V17.9998C14.6667 17.1158 15.0179 16.2679 15.643 15.6428C16.2681 15.0177 17.116 14.6665 18 14.6665H38C38.8841 14.6665 39.7319 15.0177 40.3571 15.6428C40.9822 16.2679 41.3334 17.1158 41.3334 17.9998V24.6665M41.3334 24.6665C42.2174 24.6665 43.0653 25.0177 43.6904 25.6428C44.3155 26.2679 44.6667 27.1158 44.6667 27.9998V41.3332M28 14.6665V24.6665M11.3334 37.9998H44.6667" stroke="#B8EA9B" stroke-width="2" stroke-linecap="round" stroke-linejoin="round"/>
</svg>
