<svg width="56" height="56" viewBox="0 0 56 56" fill="none" xmlns="http://www.w3.org/2000/svg">
<circle cx="28" cy="28" r="28" fill="#1D211B"/>
<path d="M33.6667 23.0002C34.7486 24.4427 35.3334 26.1971 35.3334 28.0002C35.3334 29.8033 34.7486 31.5577 33.6667 33.0002M39.2734 38.6069C40.6663 37.214 41.7712 35.5604 42.525 33.7405C43.2788 31.9206 43.6668 29.9701 43.6668 28.0002C43.6668 26.0304 43.2788 24.0798 42.525 22.2599C41.7712 20.44 40.6663 18.7864 39.2734 17.3935M25.3334 15.8369C25.333 15.6047 25.2639 15.3779 25.1348 15.185C25.0057 14.9921 24.8223 14.8417 24.6078 14.7529C24.3933 14.6641 24.1573 14.6409 23.9296 14.6861C23.7019 14.7313 23.4927 14.8429 23.3284 15.0069L17.6884 20.6452C17.4707 20.8642 17.2118 21.0378 16.9265 21.1559C16.6413 21.2741 16.3354 21.3344 16.0267 21.3335H12C11.558 21.3335 11.1341 21.5091 10.8215 21.8217C10.509 22.1343 10.3334 22.5582 10.3334 23.0002V33.0002C10.3334 33.4422 10.509 33.8662 10.8215 34.1787C11.1341 34.4913 11.558 34.6669 12 34.6669H16.0267C16.3354 34.666 16.6413 34.7263 16.9265 34.8445C17.2118 34.9627 17.4707 35.1362 17.6884 35.3552L23.3267 40.9952C23.491 41.1599 23.7006 41.272 23.9287 41.3175C24.1568 41.363 24.3933 41.3397 24.6083 41.2506C24.8232 41.1616 25.0068 41.0107 25.1359 40.8172C25.265 40.6237 25.3337 40.3962 25.3334 40.1635V15.8369Z" stroke="#B8EA9B" stroke-width="2" stroke-linecap="round" stroke-linejoin="round"/>
</svg>
