<svg width="56" height="56" viewBox="0 0 56 56" fill="none" xmlns="http://www.w3.org/2000/svg">
<circle cx="28" cy="28" r="28" fill="#1D211B"/>
<path d="M39.6666 36.3332H42.9999C43.9999 36.3332 44.6666 35.6665 44.6666 34.6665V29.6665C44.6666 28.1665 43.4999 26.8332 42.1666 26.4998C39.1666 25.6665 34.6666 24.6665 34.6666 24.6665C34.6666 24.6665 32.4999 22.3332 30.9999 20.8332C30.1666 20.1665 29.1666 19.6665 27.9999 19.6665H16.3333C15.3333 19.6665 14.4999 20.3332 13.9999 21.1665L11.6666 25.9998C11.4459 26.6435 11.3333 27.3193 11.3333 27.9998V34.6665C11.3333 35.6665 11.9999 36.3332 12.9999 36.3332H16.3333" stroke="#B8EA9B" stroke-width="2" stroke-linecap="round" stroke-linejoin="round"/>
<path d="M19.6666 39.6664C21.5075 39.6664 22.9999 38.174 22.9999 36.3331C22.9999 34.4921 21.5075 32.9998 19.6666 32.9998C17.8256 32.9998 16.3333 34.4921 16.3333 36.3331C16.3333 38.174 17.8256 39.6664 19.6666 39.6664Z" stroke="#B8EA9B" stroke-width="2" stroke-linecap="round" stroke-linejoin="round"/>
<path d="M22.9999 36.3333H32.9999" stroke="#B8EA9B" stroke-width="2" stroke-linecap="round" stroke-linejoin="round"/>
<path d="M36.3332 39.6664C38.1742 39.6664 39.6665 38.174 39.6665 36.3331C39.6665 34.4921 38.1742 32.9998 36.3332 32.9998C34.4923 32.9998 32.9999 34.4921 32.9999 36.3331C32.9999 38.174 34.4923 39.6664 36.3332 39.6664Z" stroke="#B8EA9B" stroke-width="2" stroke-linecap="round" stroke-linejoin="round"/>
</svg>
